<svg xmlns="http://www.w3.org/2000/svg" viewBox="0 0 414.676 815.362">
  <g id="ALLFLORS_SVG" transform="translate(-84.44 -51.014)">
    <path id="KATI_1" class="cls-1" d="M488.761,774.787,169.058,820.5l-80.6-107.3v31.923l80.6,120.436,319.7-53.936Z"/>
    <path id="KATI_2" class="cls-1" d="M488.308,742.958,170.233,787.619,87.093,680.976v21.48L170.233,810.9l318.076-48.7Z"/>
    <path id="KATI_3" class="cls-1" d="M489.016,709.7,169.61,750.422l-82.554-97.5h0v15.693L169.61,772.97l319.405-45.516Z"/>
    <path id="KATI_4" class="cls-1" d="M284.536,234.852,170.491,247.837,88.677,160.076l-1.631-1.884v16.332l83.445,95.164,126.223-14.945,1.342-64.753,84.282,54.218,107.812-14.034V215.159h0v-4.05L382.339,224.077l-84.282-50.5v.839l-1.342,80.327V233.612l-2.276.094Z" transform="translate(0 465)"/>
    <path id="KATI_5" class="cls-1" d="M287.067,234.8,170.491,247.837l-80.4-78.02-1.631-1v15.45l82.029,85.423,127.421-14.21V195.52l84,50.221,109.013-12.718V218.007h0v-4.05L381.912,225.609l-84-46.5v55.239l-2.276.094Z" transform="translate(0 432)"/>
    <path id="KATI_6" class="cls-1" d="M287.067,234.8,171.8,245.741,89.452,175.77l-1.631-1v15.45L171.8,267.592l126.107-12.114v-55.27l86.756,45.93,106.44-11.668V219.455h0V215.4l-106.44,10.6L297.912,183.8v50.551l-2.276.094Z" transform="translate(0 400)"/>
    <path id="KATI_7" class="cls-1" d="M287.067,234.8l-114.234,8.837L89.971,181.751l-1.631-1V196.2l84.494,69.286,125.079-10.006V204.905l86.756,41.233L492.077,237.6V222.582h0v-4.05l-107.408,7.475-86.756-37.514v45.854l-2.276.094Z" transform="translate(0 367)"/>
    <path id="KATI_8" class="cls-1" d="M287.067,234.8l-114.234,8.837L90.085,187.422l-1.631-1v15.45l84.379,63.615,125.079-10.006V210.283l86.89,38.261L492.21,240V224.989h0v-4.05L384.8,228.413l-86.89-34.543v40.476l-2.276.094Z" transform="translate(0 334)"/>
    <path id="KATI_9" class="cls-1" d="M287.529,234.383l-115.975,5.108L88.375,191.785v15.45l83.178,54.108,126.82-6.278v-41.31l86.042,33.282L492.21,240V224.989h0v-4.05l-107.795,5.968-86.042-29.564v36.591l-2.276.094Z" transform="translate(0 303)"/>
    <path id="KATI_10" class="cls-1" d="M287.593,235.147l-116.04,4.344L88.285,198.624v15.45l83.268,47.269,126.885-5.514V220.822l85.026,28.762,108.908-6.206V228.362h0v-4.05l-108.908,5.14-85.026-25.043V234.7Z" transform="translate(0 269)"/>
    <path id="KATI_11" class="cls-1" d="M288.685,234.8l-118.148,1.463L87.912,205.11V221.37l82.625,36.868,128.941-2.3V226.564l83.986,23.02,109.625-4.827V229.742h0v-4.05l-109.625,3.761-83.986-19.425V234.8Z" transform="translate(0 236)"/>
    <path id="KATI_12" class="cls-1" d="M288.685,234.8l-118.148,1.463L87.912,211.8v15.5l82.625,30.935,128.941-2.3v-23.8l83.08,18.378,110.994-3.324V232.652h0V228.6L383.568,231l-84.089-15.818V234.8Z" transform="translate(0 203)"/>
    <path id="KATI_13" class="cls-1" d="M288.685,234.8l-118.148,1.463L87.183,219.542v15.844l83.354,22.852,128.941-2.3V240.5L382.41,253.22,494.1,251.3V235.848h0V231.8l-110.488,1.583-84.139-10.668V234.8Z" transform="translate(0 168)"/>
    <path id="KATI_14" class="cls-1" d="M288.685,234.8l-118.148,1.463-83.354-9.746v15.636l83.354,16.081,128.941-2.3V247.3l83.693,8.637,111.1-1.3V238.674h0v-4.05l-110.455.181-84.342-5.514V234.8Z" transform="translate(0 134)"/>
    <path id="KATI_15" class="cls-1" d="M288.685,234.8l-118.148-1.5-83.354-1.644v16.71l83.354,6.7,128.941.866v-4.142l84.342,2.56,110.916.52V239.809h0v-4.05L383.821,234.8l-84.342-2.172V234.8Z" transform="translate(0 102)"/>
    <path id="KATI_16" class="cls-1" d="M288.685,234.8l-118.148-1.5L87.183,239.85v17.392l83.354-2.172,128.941.866v3.491l83.451-.93,112.927.93V239.643h0v-.771l-112.927-1.808-83.451,3.247V234.8Z" transform="translate(0 67)"/>
    <path id="KATI_17" class="cls-1" d="M288.685,234.8l-118.148-3.785L85.823,246.4v16.082l84.714-8.264,128.941,1.722v8.125l83.451-4.737,112.927.1V239.643L382.929,237.6l-83.451,8.362V234.8Z" transform="translate(0 34)"/>
    <path id="KATI_18" class="cls-1" d="M288.685,234.8l-118.148-3.785L85.823,253.25v17.16l84.714-16.2,128.941,1.722v14.341l84.886-8.9,111.492,1.472V242.268L383,239.365l-83.525,11.487V234.8Z"/>
    <path id="KATI_19" class="cls-1" d="M299.285,201.6l-130.27-5.7L85.577,226.418v17.21l83.438-24.335,130.27,3.717v19.748l84.872-13.995,112.09,1.8V210.123l-112.09-4.52L299.285,223.01Z"/>
    <path id="KATI_20" class="cls-1" d="M299.488,166.476l-131.014-8.768L85.493,197.985v16.924L168.474,181,299.488,186.7v24.432l85.15-16.367,111.917,5.959V176.4l-111.917-6.356-85.15,20.72Z"/>
    <path id="KATI_21" class="cls-1" d="M299.488,166.476l-131.014-8.768-82.719,45.7v16.924L168.474,181,299.488,186.7V218.84l85.15-22.542,111.917,4.421V179.5l-111.917-5.81-85.15,26.272Z" transform="translate(0 -32)"/>
    <path id="KATI_22" class="cls-1" d="M299.488,166.476l-131.014-8.768L85.7,211.921v16.924L168.474,181,299.488,186.7v38.381L385.341,198.3l112.391,7.111V184.2l-112.391-8.5L299.488,206.2Z" transform="translate(0 -68)"/>
    <path id="KATI_23" class="cls-1" d="M300.279,168.331,168.474,155.789,85.19,221.8v18.821l83.284-58.295,131.805,8.567v40.514L385.341,198.3l113.024,9.2V186.282L385.341,175.7l-85.062,36.838Z" transform="translate(0 -104)"/>
  </g>
</svg>
