<?xml version="1.0" encoding="utf-8"?>
<!-- Generator: Adobe Illustrator 22.1.0, SVG Export Plug-In . SVG Version: 6.00 Build 0)  -->
<svg version="1.1" id="FLOOR_BASMENT" xmlns="http://www.w3.org/2000/svg" xmlns:xlink="http://www.w3.org/1999/xlink" x="0px"
	 y="0px" viewBox="0 0 1133 762" style="enable-background:new 0 0 1133 762;" xml:space="preserve">
<rect id="ZN-EMPTY_1_" x="2" y="681" class="st0" width="147" height="79"/>
<rect id="ZN-12" x="2" y="539" class="st1" width="147" height="71"/>
<rect id="ZN-23" x="2" y="396" class="st1" width="147" height="143"/>
<rect id="ZN-23_1_" x="990" y="451" class="st1" width="140" height="143"/>
<rect id="ZN-23_2_" x="990" y="594" class="st2" width="140" height="166"/>
<rect id="ZN-19" x="2" y="610" class="st0" width="147" height="71"/>
<polygon id="ZN-27" class="st0" points="281.9,2 281.9,102 409,102 409,42 312,42 355,42 355,14 345,14 365,14 365,2 "/>
<polygon id="ZN-27_1_" class="st0" points="569.4,2 569.4,102 409,102 409,42 355,42 355,14 365,14 365,2 "/>
<rect id="ZN-1" x="569" y="2" class="st0" width="180" height="100"/>
<polygon id="ZN-2" class="st0" points="848.9,2.5 848.9,102 749,102 749,2 "/>
<polygon id="ZN-2_1_" class="st2" points="944.9,2.5 944.9,102 849,102 849,2 "/>
</svg>
